<?xml version="1.0" encoding="iso-8859-1"?>
<!-- Generator: Adobe Illustrator 19.0.0, SVG Export Plug-In . SVG Version: 6.00 Build 0)  -->
<svg version="1.1" id="Capa_1" xmlns="http://www.w3.org/2000/svg" xmlns:xlink="http://www.w3.org/1999/xlink" x="0px" y="0px"
	 viewBox="0 0 512 512" style="enable-background:new 0 0 512 512;" xml:space="preserve">
<g>
	<g>
		<path d="M407,0H105C47.103,0,0,47.103,0,105v302c0,57.897,47.103,105,105,105h302c57.897,0,105-47.103,105-105V105
			C512,47.103,464.897,0,407,0z M391.314,369.889l-8.034,13.39c-31.242,31.242-113.553-0.417-183.848-70.711
			c-70.294-70.294-101.953-152.605-70.711-183.848l13.39-8.034c12.131-7.278,27.866-3.345,35.144,8.786l18.958,31.596
			c6.048,10.079,4.459,22.98-3.852,31.292c-11.716,11.716-11.716,30.711,0,42.426l84.853,84.853
			c11.716,11.716,30.711,11.716,42.426,0c8.311-8.312,21.213-9.9,31.292-3.853l31.596,18.958
			C394.658,342.023,398.592,357.758,391.314,369.889z"/>
	</g>
</g>
<g>
</g>
<g>
</g>
<g>
</g>
<g>
</g>
<g>
</g>
<g>
</g>
<g>
</g>
<g>
</g>
<g>
</g>
<g>
</g>
<g>
</g>
<g>
</g>
<g>
</g>
<g>
</g>
<g>
</g>
</svg>
